# Vectary OBJ Export units=mm
mtllib LetterJ.mtl
o 000_Merged_Objects
g Merged_Objects
usemtl Box material_6b2b7552-69f0-46e5-9439-a425f1de20ac
v 75.000 300.000 325.000
v 0.000 300.000 -75.000
v 75.000 300.000 -75.000
v 0.000 300.000 325.000
v -75.000 300.000 -75.000
v -75.000 300.000 325.000
v 0.000 300.000 -475.000
v 75.000 300.000 -475.000
v -75.000 300.000 -475.000
v -75.000 375.000 -75.000
v -75.000 375.000 -475.000
v -75.000 375.000 325.000
v -75.000 450.000 -75.000
v -75.000 450.000 -475.000
v -75.000 450.000 325.000
v 0.000 375.000 325.000
v 75.000 375.000 325.000
v 0.000 450.000 325.000
v 75.000 450.000 325.000
v 0.000 375.000 -475.000
v 75.000 375.000 -475.000
v 0.000 450.000 -475.000
v 75.000 450.000 -475.000
v 75.000 375.000 -75.000
v 75.000 450.000 -75.000
v 0.000 450.000 -75.000
v -75.000 -441.481 10.295
v -75.000 -450.000 75.000
v -75.000 -300.000 75.000
v -75.000 -296.593 49.118
v 75.000 -300.000 75.000
v 75.000 -450.000 75.000
v 75.000 -441.481 10.295
v 75.000 -296.593 49.118
v -75.000 -416.506 -50.000
v -75.000 -286.603 25.000
v 75.000 -416.506 -50.000
v 75.000 -286.603 25.000
v -75.000 -376.777 -101.777
v -75.000 -270.711 4.289
v 75.000 -376.777 -101.777
v 75.000 -270.711 4.289
v -75.000 -325.000 -141.506
v -75.000 -250.000 -11.603
v 75.000 -325.000 -141.506
v 75.000 -250.000 -11.603
v -75.000 -264.705 -166.481
v -75.000 -225.882 -21.593
v 75.000 -264.705 -166.481
v 75.000 -225.882 -21.593
v -75.000 -325.000 291.506
v -75.000 -264.705 316.481
v -75.000 -225.882 171.593
v -75.000 -250.000 161.603
v 75.000 -225.882 171.593
v 75.000 -264.705 316.481
v 75.000 -325.000 291.506
v 75.000 -250.000 161.603
v -75.000 -376.777 251.777
v -75.000 -270.711 145.711
v 75.000 -376.777 251.777
v 75.000 -270.711 145.711
v -75.000 -416.506 200.000
v -75.000 -286.603 125.000
v 75.000 -416.506 200.000
v 75.000 -286.603 125.000
v -75.000 -441.481 139.705
v -75.000 -296.593 100.882
v 75.000 -441.481 139.705
v 75.000 -296.593 100.882
v 75.000 -200.000 175.000
v 75.000 -200.000 325.000
v 75.000 -200.000 -175.000
v 75.000 -200.000 -25.000
v -75.000 -216.447 322.835
v -75.000 -216.447 172.835
v -75.000 -216.447 -172.835
v -75.000 -216.447 -22.835
v -75.000 -200.000 175.000
v -75.000 -200.000 325.000
v -75.000 -200.000 -175.000
v -75.000 -200.000 -25.000
v 75.000 -200.000 -25.000
v 0.000 -200.000 -100.000
v 75.000 -200.000 -100.000
v 0.000 -200.000 -25.000
v -75.000 -200.000 -100.000
v -75.000 -200.000 -25.000
v 0.000 -200.000 -175.000
v 75.000 -200.000 -175.000
v -75.000 -200.000 -175.000
v -75.000 50.000 -100.000
v -75.000 50.000 -175.000
v -75.000 50.000 -25.000
v -75.000 300.000 -100.000
v -75.000 300.000 -175.000
v -75.000 300.000 -25.000
v 0.000 50.000 -25.000
v 75.000 50.000 -25.000
v 0.000 300.000 -25.000
v 75.000 300.000 -25.000
v 0.000 50.000 -175.000
v 75.000 50.000 -175.000
v 0.000 300.000 -175.000
v 75.000 300.000 -175.000
v 75.000 50.000 -100.000
v 75.000 300.000 -100.000
v 0.000 300.000 -100.000
vn 0.00000 -1.00000 0.00000
vn 0.00000 -1.00000 0.00000
vn 0.00000 -1.00000 0.00000
vn 0.00000 -1.00000 0.00000
vn 0.00000 -1.00000 0.00000
vn 0.00000 -1.00000 0.00000
vn 0.00000 -1.00000 0.00000
vn 0.00000 -1.00000 0.00000
vn 0.00000 -1.00000 0.00000
vn 0.00000 -1.00000 0.00000
vn 0.00000 -1.00000 0.00000
vn 0.00000 -1.00000 0.00000
vn 0.00000 -1.00000 0.00000
vn 0.00000 -1.00000 0.00000
vn 0.00000 -1.00000 0.00000
vn 0.00000 -1.00000 0.00000
vn -1.00000 0.00000 0.00000
vn -1.00000 0.00000 0.00000
vn -1.00000 0.00000 0.00000
vn -1.00000 0.00000 0.00000
vn -1.00000 0.00000 0.00000
vn -1.00000 0.00000 0.00000
vn -1.00000 0.00000 0.00000
vn -1.00000 0.00000 0.00000
vn -1.00000 0.00000 0.00000
vn -1.00000 0.00000 0.00000
vn -1.00000 0.00000 0.00000
vn -1.00000 0.00000 0.00000
vn -1.00000 0.00000 0.00000
vn -1.00000 0.00000 0.00000
vn -1.00000 0.00000 0.00000
vn -1.00000 0.00000 0.00000
vn 0.00000 0.00000 1.00000
vn 0.00000 0.00000 1.00000
vn 0.00000 0.00000 1.00000
vn 0.00000 0.00000 1.00000
vn 0.00000 0.00000 1.00000
vn 0.00000 0.00000 1.00000
vn 0.00000 0.00000 1.00000
vn 0.00000 0.00000 1.00000
vn 0.00000 0.00000 1.00000
vn 0.00000 0.00000 1.00000
vn 0.00000 0.00000 1.00000
vn 0.00000 0.00000 1.00000
vn 0.00000 0.00000 1.00000
vn 0.00000 0.00000 1.00000
vn 0.00000 0.00000 1.00000
vn 0.00000 0.00000 1.00000
vn 0.00000 -0.00000 -1.00000
vn 0.00000 -0.00000 -1.00000
vn 0.00000 -0.00000 -1.00000
vn 0.00000 -0.00000 -1.00000
vn 0.00000 -0.00000 -1.00000
vn 0.00000 -0.00000 -1.00000
vn 0.00000 -0.00000 -1.00000
vn 0.00000 -0.00000 -1.00000
vn 0.00000 -0.00000 -1.00000
vn 0.00000 -0.00000 -1.00000
vn 0.00000 -0.00000 -1.00000
vn 0.00000 -0.00000 -1.00000
vn 0.00000 -0.00000 -1.00000
vn 0.00000 -0.00000 -1.00000
vn 0.00000 -0.00000 -1.00000
vn 0.00000 -0.00000 -1.00000
vn 1.00000 0.00000 0.00000
vn 1.00000 0.00000 0.00000
vn 1.00000 0.00000 0.00000
vn 1.00000 0.00000 0.00000
vn 1.00000 0.00000 0.00000
vn 1.00000 0.00000 0.00000
vn 1.00000 0.00000 0.00000
vn 1.00000 0.00000 0.00000
vn 1.00000 0.00000 0.00000
vn 1.00000 0.00000 0.00000
vn 1.00000 0.00000 0.00000
vn 1.00000 0.00000 0.00000
vn 1.00000 0.00000 0.00000
vn 1.00000 0.00000 0.00000
vn 1.00000 0.00000 0.00000
vn 1.00000 0.00000 0.00000
vn 0.00000 1.00000 -0.00000
vn 0.00000 1.00000 -0.00000
vn 0.00000 1.00000 -0.00000
vn 0.00000 1.00000 -0.00000
vn 0.00000 1.00000 -0.00000
vn 0.00000 1.00000 -0.00000
vn 0.00000 1.00000 -0.00000
vn 0.00000 1.00000 -0.00000
vn 0.00000 1.00000 -0.00000
vn 0.00000 1.00000 -0.00000
vn 0.00000 1.00000 -0.00000
vn 0.00000 1.00000 -0.00000
vn 0.00000 1.00000 -0.00000
vn 0.00000 1.00000 -0.00000
vn 0.00000 1.00000 -0.00000
vn 0.00000 1.00000 -0.00000
vn -1.00000 0.00000 -0.00000
vn -1.00000 0.00000 -0.00000
vn -1.00000 0.00000 -0.00000
vn -1.00000 0.00000 -0.00000
vn 1.00000 -0.00000 0.00000
vn 1.00000 -0.00000 0.00000
vn 1.00000 -0.00000 0.00000
vn 1.00000 -0.00000 0.00000
vn -1.00000 0.00000 -0.00000
vn -1.00000 0.00000 -0.00000
vn -1.00000 0.00000 -0.00000
vn -1.00000 0.00000 -0.00000
vn 1.00000 -0.00000 0.00000
vn 1.00000 -0.00000 0.00000
vn 1.00000 -0.00000 0.00000
vn 1.00000 -0.00000 0.00000
vn -1.00000 0.00000 -0.00000
vn -1.00000 0.00000 -0.00000
vn -1.00000 0.00000 -0.00000
vn -1.00000 0.00000 -0.00000
vn 1.00000 -0.00000 0.00000
vn 1.00000 -0.00000 0.00000
vn 1.00000 -0.00000 0.00000
vn 1.00000 -0.00000 0.00000
vn -1.00000 0.00000 -0.00000
vn -1.00000 0.00000 -0.00000
vn -1.00000 0.00000 -0.00000
vn -1.00000 0.00000 -0.00000
vn 1.00000 -0.00000 0.00000
vn 1.00000 -0.00000 0.00000
vn 1.00000 -0.00000 0.00000
vn 1.00000 -0.00000 0.00000
vn -1.00000 0.00000 -0.00000
vn -1.00000 0.00000 -0.00000
vn -1.00000 0.00000 -0.00000
vn -1.00000 0.00000 -0.00000
vn 1.00000 -0.00000 0.00000
vn 1.00000 -0.00000 0.00000
vn 1.00000 -0.00000 0.00000
vn 1.00000 -0.00000 0.00000
vn -1.00000 0.00000 -0.00000
vn -1.00000 0.00000 -0.00000
vn -1.00000 0.00000 -0.00000
vn -1.00000 0.00000 -0.00000
vn 1.00000 -0.00000 0.00000
vn 1.00000 -0.00000 0.00000
vn 1.00000 -0.00000 0.00000
vn 1.00000 -0.00000 0.00000
vn -1.00000 0.00000 -0.00000
vn -1.00000 0.00000 -0.00000
vn -1.00000 0.00000 -0.00000
vn -1.00000 0.00000 -0.00000
vn 1.00000 -0.00000 0.00000
vn 1.00000 -0.00000 0.00000
vn 1.00000 -0.00000 0.00000
vn 1.00000 -0.00000 0.00000
vn -1.00000 0.00000 -0.00000
vn -1.00000 0.00000 -0.00000
vn -1.00000 0.00000 -0.00000
vn -1.00000 0.00000 -0.00000
vn 1.00000 -0.00000 0.00000
vn 1.00000 -0.00000 0.00000
vn 1.00000 -0.00000 0.00000
vn 1.00000 -0.00000 0.00000
vn -1.00000 0.00000 -0.00000
vn -1.00000 0.00000 -0.00000
vn -1.00000 0.00000 -0.00000
vn -1.00000 0.00000 -0.00000
vn 1.00000 -0.00000 0.00000
vn 1.00000 -0.00000 0.00000
vn 1.00000 -0.00000 0.00000
vn 1.00000 -0.00000 0.00000
vn -1.00000 0.00000 -0.00000
vn -1.00000 0.00000 -0.00000
vn -1.00000 0.00000 -0.00000
vn -1.00000 0.00000 -0.00000
vn 1.00000 -0.00000 0.00000
vn 1.00000 -0.00000 0.00000
vn 1.00000 -0.00000 0.00000
vn 1.00000 -0.00000 0.00000
vn -0.00000 -0.96593 -0.25882
vn -0.00000 -1.00000 0.00000
vn -0.00000 -1.00000 0.00000
vn -0.00000 -0.96593 -0.25882
vn 0.00000 1.00000 -0.00000
vn 0.00000 1.00000 -0.00000
vn 0.00000 0.96593 0.25882
vn 0.00000 0.96593 0.25882
vn -0.00000 -0.86603 -0.50000
vn -0.00000 -0.96593 -0.25882
vn -0.00000 -0.96593 -0.25882
vn -0.00000 -0.86603 -0.50000
vn 0.00000 0.96593 0.25882
vn 0.00000 0.96593 0.25882
vn 0.00000 0.86603 0.50000
vn 0.00000 0.86603 0.50000
vn -0.00000 -0.70711 -0.70711
vn -0.00000 -0.86603 -0.50000
vn -0.00000 -0.86603 -0.50000
vn -0.00000 -0.70711 -0.70711
vn 0.00000 0.86603 0.50000
vn 0.00000 0.86603 0.50000
vn 0.00000 0.70711 0.70711
vn 0.00000 0.70711 0.70711
vn -0.00000 -0.50000 -0.86603
vn -0.00000 -0.70711 -0.70711
vn -0.00000 -0.70711 -0.70711
vn -0.00000 -0.50000 -0.86603
vn 0.00000 0.70711 0.70711
vn 0.00000 0.70711 0.70711
vn 0.00000 0.50000 0.86603
vn 0.00000 0.50000 0.86603
vn -0.00000 -0.26744 -0.96358
vn -0.00000 -0.50000 -0.86603
vn -0.00000 -0.50000 -0.86603
vn -0.00000 -0.26744 -0.96358
vn 0.00000 0.50000 0.86603
vn 0.00000 0.50000 0.86603
vn 0.00000 0.28275 0.95919
vn 0.00000 0.28275 0.95919
vn -0.00000 -0.50000 0.86603
vn -0.00000 -0.26744 0.96358
vn -0.00000 -0.26744 0.96358
vn -0.00000 -0.50000 0.86603
vn 0.00000 0.28275 -0.95919
vn 0.00000 0.28275 -0.95919
vn 0.00000 0.50000 -0.86603
vn 0.00000 0.50000 -0.86603
vn -0.00000 -0.70711 0.70711
vn -0.00000 -0.50000 0.86603
vn -0.00000 -0.50000 0.86603
vn -0.00000 -0.70711 0.70711
vn 0.00000 0.50000 -0.86603
vn 0.00000 0.50000 -0.86603
vn 0.00000 0.70711 -0.70711
vn 0.00000 0.70711 -0.70711
vn -0.00000 -0.86603 0.50000
vn -0.00000 -0.70711 0.70711
vn -0.00000 -0.70711 0.70711
vn -0.00000 -0.86603 0.50000
vn 0.00000 0.70711 -0.70711
vn 0.00000 0.70711 -0.70711
vn 0.00000 0.86603 -0.50000
vn 0.00000 0.86603 -0.50000
vn -0.00000 -0.96593 0.25882
vn -0.00000 -0.86603 0.50000
vn -0.00000 -0.86603 0.50000
vn -0.00000 -0.96593 0.25882
vn 0.00000 0.86603 -0.50000
vn 0.00000 0.86603 -0.50000
vn 0.00000 0.96593 -0.25882
vn 0.00000 0.96593 -0.25882
vn -0.00000 -1.00000 0.00000
vn -0.00000 -0.96593 0.25882
vn -0.00000 -0.96593 0.25882
vn -0.00000 -1.00000 0.00000
vn 0.00000 0.96593 -0.25882
vn 0.00000 0.96593 -0.25882
vn 0.00000 1.00000 -0.00000
vn 0.00000 1.00000 -0.00000
vn 1.00000 -0.00000 0.00000
vn 1.00000 -0.00000 0.00000
vn 1.00000 -0.00000 0.00000
vn 1.00000 -0.00000 0.00000
vn 1.00000 -0.00000 0.00000
vn 1.00000 -0.00000 0.00000
vn 1.00000 -0.00000 0.00000
vn 1.00000 -0.00000 0.00000
vn -0.00000 -0.26744 0.96358
vn -0.00000 -0.13053 0.99144
vn -0.00000 -0.13053 0.99144
vn -0.00000 -0.26744 0.96358
vn 0.00000 0.28275 -0.95919
vn 0.00000 0.13053 -0.99144
vn 0.00000 0.13053 -0.99144
vn 0.00000 0.28275 -0.95919
vn -0.00000 -0.26744 -0.96358
vn -0.00000 -0.13053 -0.99144
vn -0.00000 -0.13053 -0.99144
vn -0.00000 -0.26744 -0.96358
vn 0.00000 0.28275 0.95919
vn 0.00000 0.13053 0.99144
vn 0.00000 0.13053 0.99144
vn 0.00000 0.28275 0.95919
vn -1.00000 0.00000 -0.00000
vn -1.00000 0.00000 -0.00000
vn -1.00000 0.00000 -0.00000
vn -1.00000 0.00000 -0.00000
vn -1.00000 0.00000 -0.00000
vn -1.00000 0.00000 -0.00000
vn -1.00000 0.00000 -0.00000
vn -1.00000 0.00000 -0.00000
vn -1.00000 0.00000 -0.00000
vn -1.00000 0.00000 -0.00000
vn -1.00000 0.00000 -0.00000
vn -1.00000 0.00000 -0.00000
vn -1.00000 0.00000 -0.00000
vn -1.00000 0.00000 -0.00000
vn -1.00000 0.00000 -0.00000
vn -1.00000 0.00000 -0.00000
vn -0.00000 -0.13053 0.99144
vn -0.00000 -0.13053 0.99144
vn -0.00000 -0.13053 0.99144
vn 0.00000 0.13053 -0.99144
vn 0.00000 0.13053 -0.99144
vn 0.00000 0.13053 -0.99144
vn -0.00000 -0.13053 -0.99144
vn -0.00000 -0.13053 -0.99144
vn -0.00000 -0.13053 -0.99144
vn 0.00000 0.13053 0.99144
vn 0.00000 0.13053 0.99144
vn 0.00000 0.13053 0.99144
vn 0.00000 1.00000 -0.00000
vn 0.00000 1.00000 -0.00000
vn 0.00000 1.00000 -0.00000
vn 0.00000 1.00000 -0.00000
vn 0.00000 1.00000 -0.00000
vn 0.00000 1.00000 -0.00000
vn 0.00000 1.00000 -0.00000
vn 0.00000 1.00000 -0.00000
vn 0.00000 -1.00000 0.00000
vn 0.00000 -1.00000 0.00000
vn 0.00000 -1.00000 0.00000
vn 0.00000 -1.00000 0.00000
vn 0.00000 -1.00000 0.00000
vn 0.00000 -1.00000 0.00000
vn 0.00000 -1.00000 0.00000
vn 0.00000 -1.00000 0.00000
vn 0.00000 -1.00000 0.00000
vn 0.00000 -1.00000 0.00000
vn 0.00000 -1.00000 0.00000
vn 0.00000 -1.00000 0.00000
vn 0.00000 -1.00000 0.00000
vn 0.00000 -1.00000 0.00000
vn 0.00000 -1.00000 0.00000
vn 0.00000 -1.00000 0.00000
vn -1.00000 0.00000 0.00000
vn -1.00000 0.00000 0.00000
vn -1.00000 0.00000 0.00000
vn -1.00000 0.00000 0.00000
vn -1.00000 0.00000 0.00000
vn -1.00000 0.00000 0.00000
vn -1.00000 0.00000 0.00000
vn -1.00000 0.00000 0.00000
vn -1.00000 0.00000 0.00000
vn -1.00000 0.00000 0.00000
vn -1.00000 0.00000 0.00000
vn -1.00000 0.00000 0.00000
vn -1.00000 0.00000 0.00000
vn -1.00000 0.00000 0.00000
vn -1.00000 0.00000 0.00000
vn -1.00000 0.00000 0.00000
vn 0.00000 0.00000 1.00000
vn 0.00000 0.00000 1.00000
vn 0.00000 0.00000 1.00000
vn 0.00000 0.00000 1.00000
vn 0.00000 0.00000 1.00000
vn 0.00000 0.00000 1.00000
vn 0.00000 0.00000 1.00000
vn 0.00000 0.00000 1.00000
vn 0.00000 0.00000 1.00000
vn 0.00000 0.00000 1.00000
vn 0.00000 0.00000 1.00000
vn 0.00000 0.00000 1.00000
vn 0.00000 0.00000 1.00000
vn 0.00000 0.00000 1.00000
vn 0.00000 0.00000 1.00000
vn 0.00000 0.00000 1.00000
vn 0.00000 -0.00000 -1.00000
vn 0.00000 -0.00000 -1.00000
vn 0.00000 -0.00000 -1.00000
vn 0.00000 -0.00000 -1.00000
vn 0.00000 -0.00000 -1.00000
vn 0.00000 -0.00000 -1.00000
vn 0.00000 -0.00000 -1.00000
vn 0.00000 -0.00000 -1.00000
vn 0.00000 -0.00000 -1.00000
vn 0.00000 -0.00000 -1.00000
vn 0.00000 -0.00000 -1.00000
vn 0.00000 -0.00000 -1.00000
vn 0.00000 -0.00000 -1.00000
vn 0.00000 -0.00000 -1.00000
vn 0.00000 -0.00000 -1.00000
vn 0.00000 -0.00000 -1.00000
vn 1.00000 0.00000 0.00000
vn 1.00000 0.00000 0.00000
vn 1.00000 0.00000 0.00000
vn 1.00000 0.00000 0.00000
vn 1.00000 0.00000 0.00000
vn 1.00000 0.00000 0.00000
vn 1.00000 0.00000 0.00000
vn 1.00000 0.00000 0.00000
vn 1.00000 0.00000 0.00000
vn 1.00000 0.00000 0.00000
vn 1.00000 0.00000 0.00000
vn 1.00000 0.00000 0.00000
vn 1.00000 0.00000 0.00000
vn 1.00000 0.00000 0.00000
vn 1.00000 0.00000 0.00000
vn 1.00000 0.00000 0.00000
vn 0.00000 1.00000 -0.00000
vn 0.00000 1.00000 -0.00000
vn 0.00000 1.00000 -0.00000
vn 0.00000 1.00000 -0.00000
vn 0.00000 1.00000 -0.00000
vn 0.00000 1.00000 -0.00000
vn 0.00000 1.00000 -0.00000
vn 0.00000 1.00000 -0.00000
vn 0.00000 1.00000 -0.00000
vn 0.00000 1.00000 -0.00000
vn 0.00000 1.00000 -0.00000
vn 0.00000 1.00000 -0.00000
vn 0.00000 1.00000 -0.00000
vn 0.00000 1.00000 -0.00000
vn 0.00000 1.00000 -0.00000
vn 0.00000 1.00000 -0.00000
f 3//3 1//1 4//4 2//2 
f 2//7 4//5 6//8 5//6 
f 8//11 3//9 2//12 7//10 
f 7//15 2//13 5//16 9//14 
f 11//19 9//17 5//20 10//18 
f 10//23 5//21 6//24 12//22 
f 14//27 11//25 10//28 13//26 
f 13//31 10//29 12//32 15//30 
f 12//35 6//33 4//36 16//34 
f 16//39 4//37 1//40 17//38 
f 15//43 12//41 16//44 18//42 
f 18//47 16//45 17//48 19//46 
f 21//51 8//49 7//52 20//50 
f 20//55 7//53 9//56 11//54 
f 23//59 21//57 20//60 22//58 
f 22//63 20//61 11//64 14//62 
f 17//67 1//65 3//68 24//66 
f 24//71 3//69 8//72 21//70 
f 19//75 17//73 24//76 25//74 
f 25//79 24//77 21//80 23//78 
f 13//83 15//81 18//84 26//82 
f 26//87 18//85 19//88 25//86 
f 14//91 13//89 26//92 22//90 
f 22//95 26//93 25//96 23//94 
f 28//98 29//99 30//100 27//97 
f 32//102 33//103 34//104 31//101 
f 27//106 30//107 36//108 35//105 
f 33//110 37//111 38//112 34//109 
f 35//114 36//115 40//116 39//113 
f 37//118 41//119 42//120 38//117 
f 39//122 40//123 44//124 43//121 
f 41//126 45//127 46//128 42//125 
f 43//130 44//131 48//132 47//129 
f 45//134 49//135 50//136 46//133 
f 52//138 53//139 54//140 51//137 
f 56//142 57//143 58//144 55//141 
f 51//146 54//147 60//148 59//145 
f 57//150 61//151 62//152 58//149 
f 59//154 60//155 64//156 63//153 
f 61//158 65//159 66//160 62//157 
f 63//162 64//163 68//164 67//161 
f 65//166 69//167 70//168 66//165 
f 67//170 68//171 29//172 28//169 
f 69//174 32//175 31//176 70//173 
f 32//178 28//179 27//180 33//177 
f 31//182 34//183 30//184 29//181 
f 33//186 27//187 35//188 37//185 
f 34//190 38//191 36//192 30//189 
f 37//194 35//195 39//196 41//193 
f 38//198 42//199 40//200 36//197 
f 41//202 39//203 43//204 45//201 
f 42//206 46//207 44//208 40//205 
f 45//210 43//211 47//212 49//209 
f 46//214 50//215 48//216 44//213 
f 56//218 52//219 51//220 57//217 
f 55//222 58//223 54//224 53//221 
f 57//226 51//227 59//228 61//225 
f 58//230 62//231 60//232 54//229 
f 61//234 59//235 63//236 65//233 
f 62//238 66//239 64//240 60//237 
f 65//242 63//243 67//244 69//241 
f 66//246 70//247 68//248 64//245 
f 69//250 67//251 28//252 32//249 
f 70//254 31//255 29//256 68//253 
f 72//258 56//259 55//260 71//257 
f 49//262 73//263 74//264 50//261 
f 72//266 75//267 52//268 56//265 
f 76//270 71//271 55//272 53//269 
f 77//274 73//275 49//276 47//273 
f 74//278 78//279 48//280 50//277 
f 78//282 77//283 47//284 48//281 
f 76//286 75//287 80//288 79//285 
f 75//290 76//291 53//292 52//289 
f 77//294 78//295 82//296 81//293 
f 80//310 72//311 71//312 79//309 
f 82//314 74//315 73//316 81//313 
f 85//319 83//317 86//320 84//318 
f 84//323 86//321 88//324 87//322 
f 90//327 85//325 84//328 89//326 
f 89//331 84//329 87//332 91//330 
f 93//335 91//333 87//336 92//334 
f 92//339 87//337 88//340 94//338 
f 96//343 93//341 92//344 95//342 
f 95//347 92//345 94//348 97//346 
f 94//351 88//349 86//352 98//350 
f 98//355 86//353 83//356 99//354 
f 97//359 94//357 98//360 100//358 
f 100//363 98//361 99//364 101//362 
f 103//367 90//365 89//368 102//366 
f 102//371 89//369 91//372 93//370 
f 105//375 103//373 102//376 104//374 
f 104//379 102//377 93//380 96//378 
f 99//383 83//381 85//384 106//382 
f 106//387 85//385 90//388 103//386 
f 101//391 99//389 106//392 107//390 
f 107//395 106//393 103//396 105//394 
f 95//399 97//397 100//400 108//398 
f 108//403 100//401 101//404 107//402 
f 96//407 95//405 108//408 104//406 
f 104//411 108//409 107//412 105//410 
f 80//297 75//298 72//299 
f 79//300 71//301 76//302 
f 81//303 73//304 77//305 
f 82//306 78//307 74//308 
